<svg width="33" height="33" viewBox="0 0 33 33" fill="none" xmlns="http://www.w3.org/2000/svg">
<path d="M31.878 5.742C32.406 6.248 32.67 6.853 32.67 7.557C32.67 8.261 32.406 8.866 31.878 9.372L25.773 15.477V30.921C25.773 31.405 25.608 31.812 25.278 32.142C24.948 32.472 24.541 32.648 24.057 32.67H1.749C1.265 32.67 0.858 32.494 0.528 32.142C0.198 31.79 0.022 31.383 0 30.921V8.613C0 8.151 0.176 7.744 0.528 7.392C0.88 7.04 1.287 6.875 1.749 6.897H17.193L23.298 0.792C23.826 0.264 24.431 0 25.113 0C25.795 0 26.4 0.264 26.928 0.792L31.878 5.742ZM14.619 21.78L25.41 10.956L21.714 7.26L10.89 18.051L14.619 21.78ZM10.197 19.503L10.329 22.341L13.233 22.473L10.197 19.503ZM22.374 29.238V18.942L16.863 24.222C16.423 24.662 15.73 25.025 14.784 25.311C13.838 25.597 12.958 25.751 12.144 25.773H6.897V20.526C6.897 19.624 7.018 18.722 7.26 17.82C7.502 16.918 7.843 16.247 8.283 15.807L13.728 10.296H3.432V29.238H22.374ZM26.664 9.768L28.875 7.557L25.113 3.795L22.902 6.006L26.664 9.768Z" fill="black"/>
</svg>
