<svg width="34" height="32" viewBox="0 0 34 32" fill="none" xmlns="http://www.w3.org/2000/svg">
<path d="M2.2 12.342C5.77867 13.882 10.6187 14.652 16.72 14.652C22.8213 14.652 27.6613 13.882 31.24 12.342L28.864 28.38C28.8053 28.688 28.292 29.084 27.324 29.568C26.356 30.052 24.8893 30.525 22.924 30.987C20.9587 31.449 18.8907 31.68 16.72 31.68C14.5493 31.68 12.496 31.449 10.56 30.987C8.624 30.525 7.15733 30.052 6.16 29.568C5.16267 29.084 4.63467 28.688 4.576 28.38L2.2 12.342ZM23.672 2.442C26.4293 2.838 28.7467 3.443 30.624 4.257C32.5013 5.071 33.44 5.852 33.44 6.6V6.93C33.44 8.206 31.7973 9.295 28.512 10.197C25.2267 11.099 21.296 11.55 16.72 11.55C12.144 11.55 8.21333 11.099 4.928 10.197C1.64267 9.295 0 8.206 0 6.93V6.6C0 5.852 0.938667 5.071 2.816 4.257C4.69333 3.443 7.01067 2.838 9.768 2.442L11.616 0.858C12.2613 0.286 13.288 0 14.696 0H18.744C20.2693 0 21.296 0.286 21.824 0.858L23.672 2.442ZM21.296 6.138H24.992C22.2933 3.718 20.768 2.332 20.416 1.98C20.0053 1.628 19.536 1.452 19.008 1.452H14.52C13.8747 1.452 13.4053 1.628 13.112 1.98L8.448 6.138H12.144L14.96 3.96H18.568L21.296 6.138Z" fill="black"/>
</svg>
