<svg width="33" height="31" viewBox="0 0 33 31" fill="none" xmlns="http://www.w3.org/2000/svg">
<path d="M22.6347 12.9728C22.6347 10.7068 21.7664 8.77077 20.0299 7.16477C18.2933 5.55877 16.2283 4.74477 13.8347 4.72277C11.4411 4.70077 9.36427 5.51477 7.60427 7.16477C5.84427 8.81477 4.98773 10.7508 5.03467 12.9728C5.0816 15.1948 5.93813 17.1418 7.60427 18.8138C9.2704 20.4858 11.3472 21.2888 13.8347 21.2228C16.3221 21.1568 18.3872 20.3538 20.0299 18.8138C21.6725 17.2738 22.5408 15.3268 22.6347 12.9728ZM32.7019 28.3178C32.7019 28.9558 32.4437 29.5058 31.9275 29.9678C31.4112 30.4298 30.8245 30.6608 30.1675 30.6608C29.4635 30.6608 28.8768 30.4298 28.4075 29.9678L21.6843 23.6648C19.3376 25.1828 16.7211 25.9418 13.8347 25.9418C11.9573 25.9418 10.1621 25.6008 8.44907 24.9188C6.736 24.2368 5.26933 23.3128 4.04907 22.1468C2.8288 20.9808 1.8432 19.6058 1.09227 18.0218C0.341333 16.4378 -0.0224 14.7548 0.00106667 12.9728C0.0245333 11.1908 0.388267 9.51877 1.09227 7.95677C1.79627 6.39477 2.78187 5.00877 4.04907 3.79877C5.31627 2.58877 6.78293 1.66477 8.44907 1.02677C10.1152 0.388771 11.9104 0.0477714 13.8347 0.00377143C15.7589 -0.0402286 17.5424 0.300771 19.1851 1.02677C20.8277 1.75277 22.3061 2.67677 23.6203 3.79877C24.9344 4.92077 25.92 6.30677 26.5771 7.95677C27.2341 9.60677 27.5979 11.2788 27.6683 12.9728C27.6683 15.6788 26.8587 18.1318 25.2395 20.3318L31.9627 26.6348C32.4555 27.0968 32.7019 27.6578 32.7019 28.3178Z" fill="#747474"/>
</svg>
