<svg width="37" height="27" viewBox="0 0 37 27" fill="none" xmlns="http://www.w3.org/2000/svg">
<path d="M0 24.6086V2.39143C0 2.36571 0.0356798 2.12143 0.10704 1.65857L12.2025 12.8443L0.142719 25.38C0.0475731 25.02 0 24.7629 0 24.6086H0ZM1.60559 0.115714C1.7721 0.0385711 1.97428 0 2.21215 0H34.7879C35.0019 0 35.216 0.0385711 35.4301 0.115714L23.2989 11.34L21.6933 12.7286L18.5178 15.5443L15.3423 12.7286L13.7367 11.34L1.60559 0.115714ZM1.64127 26.8843L13.8081 14.2714L18.5178 18.3986L23.2276 14.2714L35.3944 26.8843C35.2041 26.9614 35.0019 27 34.7879 27H2.21215C2.02186 27 1.83157 26.9614 1.64127 26.8843ZM24.8332 12.8443L36.893 1.65857C36.9643 1.89 37 2.13429 37 2.39143V24.6086C37 24.84 36.9643 25.0971 36.893 25.38L24.8332 12.8443Z" fill="#747474"/>
</svg>
