<svg width="35" height="34" viewBox="0 0 35 34" fill="none" xmlns="http://www.w3.org/2000/svg">
<path d="M0 17.1916C0 20.258 0.784418 23.0296 2.35326 25.5063C3.92209 28.0774 6.05123 30.0942 8.74066 31.5566C11.4301 33.0191 14.3561 33.7621 17.5187 33.7857C20.6813 33.7857 23.6073 33.0427 26.2967 31.5566C29.011 30.0706 31.1402 28.0538 32.6841 25.5063C34.228 22.9588 35 20.1872 35 17.1916C35 14.1487 34.228 11.3771 32.6841 8.87681C31.1153 6.30572 28.9861 4.28895 26.2967 2.82649C23.6073 1.36404 20.6813 0.632812 17.5187 0.632812C14.2814 0.632812 11.3554 1.37583 8.74066 2.86188C6.02633 4.34792 3.89719 6.36469 2.35326 8.91219C0.809321 11.4597 0.0249022 14.2195 0 17.1916H0ZM2.91355 17.1916C2.91355 15.3517 3.29954 13.5708 4.0715 11.8489C4.84347 10.127 5.88936 8.65272 7.20918 7.42615C8.52899 6.17599 10.0854 5.18529 11.8783 4.45406C13.6713 3.72284 15.5514 3.36902 17.5187 3.39261C19.4859 3.41619 21.3536 3.77001 23.1217 4.45406C24.8897 5.13812 26.4586 6.12881 27.8282 7.42615C29.148 8.67631 30.1814 10.1624 30.9285 11.8843C31.6756 13.6062 32.0615 15.3753 32.0864 17.1916C32.0864 19.173 31.6631 21.06 30.8164 22.8527C29.9698 24.6454 28.762 26.2022 27.1932 27.5231C25.6243 28.844 23.8563 29.7875 21.889 30.3537V25.5063C21.889 24.2798 21.3661 23.3362 20.3202 22.6758C22.8851 22.4399 24.7528 21.8148 25.9232 20.8005C27.0936 19.7862 27.6912 18.1823 27.7161 15.9886C27.7161 14.2902 27.1558 12.8632 26.0352 11.7074C26.2593 11.0705 26.3714 10.469 26.3714 9.90289C26.3714 9.05372 26.1722 8.27532 25.7737 7.56768C24.952 7.56768 24.2174 7.68562 23.5699 7.9215C22.9224 8.15738 22.138 8.59375 21.2167 9.23063C20.0711 8.99475 18.9007 8.87681 17.7054 8.87681C16.3358 8.87681 15.0534 9.00654 13.8581 9.26601C12.9367 8.65272 12.1523 8.21635 11.5048 7.95688C10.8573 7.69741 10.0978 7.56768 9.22625 7.56768C8.82782 8.27532 8.6286 9.05372 8.6286 9.90289C8.6286 10.4926 8.74066 11.0941 8.96478 11.7074C7.84418 12.8396 7.28388 14.2667 7.28388 15.9886C7.28388 18.1823 7.88154 19.7862 9.07684 20.8005C10.2721 21.8148 12.1523 22.4281 14.7172 22.6404C14.0448 23.0886 13.5717 23.7254 13.2978 24.551C12.7001 24.7633 12.0776 24.8695 11.4301 24.8695C10.957 24.8695 10.5336 24.7633 10.1601 24.551C10.0605 24.4803 9.96087 24.4213 9.86126 24.3741C9.76165 24.3269 9.67449 24.2444 9.59979 24.1264C9.52508 24.0085 9.43792 23.9377 9.33831 23.9141C9.23871 23.8906 9.164 23.7962 9.11419 23.6311C9.06439 23.466 9.00213 23.3952 8.92743 23.4188C8.85272 23.4424 8.77802 23.348 8.70331 23.1357C8.6286 22.9234 8.56635 22.8409 8.51654 22.8881C7.94379 22.1804 7.25898 21.8266 6.46211 21.8266C6.03878 21.8266 5.82711 21.9092 5.82711 22.0743C5.82711 22.145 5.93917 22.263 6.16329 22.4281C6.53682 22.7347 6.73604 22.8999 6.76094 22.9234C7.05977 23.1593 7.22163 23.3009 7.24653 23.348C7.59516 23.7726 7.86909 24.2326 8.0683 24.7279C8.74066 26.1668 9.89861 26.8862 11.5422 26.8862C11.8161 26.8862 12.339 26.8273 13.111 26.7093V30.3537C11.1188 29.764 9.35077 28.8204 7.80683 27.5231C6.2629 26.2258 5.06759 24.669 4.22092 22.8527C3.37424 21.0364 2.93846 19.1494 2.91355 17.1916Z" fill="#747474"/>
</svg>
