<svg width="38" height="38" viewBox="0 0 38 38" fill="none" xmlns="http://www.w3.org/2000/svg">
<g clip-path="url(#clip0_320_637)">
<path d="M7.448 0C3.344 0 0 3.344 0 7.448V30.552C0 34.656 3.344 38 7.448 38H30.552C34.618 38 38 34.656 38 30.552V7.448C38 3.344 34.618 0 30.552 0H7.448V0ZM9.31 6.27C11.286 6.27 12.502 7.562 12.54 9.272C12.54 10.906 11.286 12.236 9.272 12.236H9.234C7.334 12.236 6.08 10.906 6.08 9.272C6.08 7.562 7.372 6.27 9.31 6.27ZM26.22 14.174C30.02 14.174 32.832 16.644 32.832 21.964V31.844H27.094V22.61C27.094 20.292 26.258 18.734 24.206 18.734C22.61 18.734 21.66 19.798 21.242 20.824C21.09 21.204 21.052 21.698 21.052 22.23V31.844H15.314C15.314 31.844 15.39 16.226 15.314 14.592H21.052V17.024C21.812 15.846 23.18 14.174 26.22 14.174ZM6.422 14.592H12.16V31.844H6.422V14.592Z" fill="#747474"/>
</g>
<defs>
<clipPath id="clip0_320_637">
<rect width="38" height="38" fill="white"/>
</clipPath>
</defs>
</svg>
