<svg width="36" height="35" viewBox="0 0 36 35" fill="none" xmlns="http://www.w3.org/2000/svg">
<path d="M0 35C0 34.7759 0.0117188 34.4895 0.0351562 34.1409C0.0585938 33.7923 0.1875 33.2072 0.421875 32.3854C0.65625 31.5637 0.972656 30.9537 1.37109 30.5552C1.76953 30.1319 2.56641 29.6588 3.76172 29.1359C4.95703 28.613 6.30469 28.0776 7.80469 27.5298C9.30469 26.982 10.3945 26.5089 11.0742 26.1105C11.9648 25.6374 12.6562 24.9402 13.1484 24.0188C13.6406 23.0975 13.875 22.1513 13.8516 21.1802C13.8516 20.5078 13.4766 19.7235 12.7266 18.8271C11.9531 17.8808 11.332 16.6109 10.8633 15.0173C10.3945 13.4236 10.1602 11.5685 10.1602 9.45198C10.1602 7.85834 10.3711 6.45145 10.793 5.23132C11.2148 4.0112 11.7891 3.01517 12.5156 2.24325C13.2422 1.47133 14.0742 0.911069 15.0117 0.562461C15.9492 0.213852 16.9453 0.0270977 18 0.00219711C19.0547 -0.0227035 20.0508 0.164051 20.9883 0.562461C21.9258 0.96087 22.7578 1.52113 23.4844 2.24325C24.2109 2.96537 24.7852 3.96139 25.207 5.23132C25.6289 6.50126 25.8398 7.90814 25.8398 9.45198C25.8398 11.5436 25.6055 13.3987 25.1367 15.0173C24.668 16.6358 24.0586 17.9057 23.3086 18.8271C22.5352 19.7484 22.1484 20.5327 22.1484 21.1802C22.1484 22.1513 22.3945 23.0975 22.8867 24.0188C23.3789 24.9402 24.0703 25.6374 24.9609 26.1105C25.6406 26.484 26.7305 26.9571 28.2305 27.5298C29.7305 28.1025 31.0664 28.6379 32.2383 29.1359C33.4102 29.6339 34.207 30.107 34.6289 30.5552C35.0273 30.9786 35.3438 31.5637 35.5781 32.3107C35.8125 33.0578 35.9414 33.6927 35.9648 34.2156L36 35H0H0Z" fill="#747474"/>
</svg>
