<svg width="33" height="33" viewBox="0 0 33 33" fill="none" xmlns="http://www.w3.org/2000/svg">
<g clip-path="url(#clip0_489_718)">
<path d="M33.2006 13.5628V17.0938C33.2006 17.5778 32.9754 17.9958 32.5248 18.3478C32.0742 18.6998 31.5392 18.8648 30.9197 18.8428H21.12V26.5318C21.12 27.0158 20.8947 27.4228 20.4442 27.7528C19.9936 28.0828 19.4586 28.2588 18.839 28.2808H14.3194C13.6998 28.2808 13.1648 28.1048 12.7142 27.7528C12.2637 27.4008 12.0525 26.9938 12.0806 26.5318V18.8428H2.28096C1.63328 18.8428 1.09824 18.6778 0.67584 18.3478C0.25344 18.0178 0.02816 17.5998 0 17.0938V13.5628C0 13.0568 0.22528 12.6388 0.67584 12.3088C1.1264 11.9788 1.66144 11.8028 2.28096 11.7808H12.0806V4.12477C12.0806 3.64077 12.2918 3.22277 12.7142 2.87077C13.1366 2.51877 13.6717 2.34277 14.3194 2.34277H18.839C19.4867 2.34277 20.0218 2.51877 20.4442 2.87077C20.8666 3.22277 21.0918 3.64077 21.12 4.12477V11.7808H30.9197C31.5392 11.7808 32.0742 11.9568 32.5248 12.3088C32.9754 12.6608 33.2006 13.0788 33.2006 13.5628Z" fill="white"/>
</g>
<defs>
<clipPath id="clip0_489_718">
<rect width="33" height="33" fill="white"/>
</clipPath>
</defs>
</svg>
