<svg width="33" height="36" viewBox="0 0 33 36" fill="none" xmlns="http://www.w3.org/2000/svg">
<path d="M0 32.5118V17.62C0 17.2411 0.159652 16.9253 0.478955 16.6727C0.798258 16.4201 1.18142 16.2938 1.62845 16.2938H3.83164V10.6857C3.83164 9.32155 4.15094 8.00794 4.78955 6.74486C5.42816 5.48177 6.32221 4.38289 7.4717 3.4482C8.62119 2.463 9.97823 1.70515 11.5428 1.17465C13.1074 0.644154 14.7678 0.378906 16.5239 0.378906C18.2482 0.378906 19.8926 0.644154 21.4572 1.17465C23.0218 1.70515 24.3788 2.463 25.5283 3.4482C26.6778 4.40815 27.5718 5.50703 28.2104 6.74486C28.8491 7.98268 29.1684 9.29629 29.1684 10.6857V16.2938H31.3716C31.8186 16.2938 32.2017 16.4201 32.521 16.6727C32.8403 16.9253 33 17.2411 33 17.62V32.5118C33 32.6886 32.9521 32.8402 32.8563 32.9665C32.7605 33.0928 32.6488 33.1939 32.521 33.2697C32.3933 33.3454 32.2337 33.4339 32.0421 33.5349C31.8505 33.6359 31.627 33.7117 31.3716 33.7623C30.7649 33.9644 29.9187 34.1917 28.8331 34.4443C27.7475 34.6969 25.9753 35.0001 23.5167 35.3537C21.0581 35.7074 18.7112 35.8842 16.4761 35.8842C11.6546 35.8842 6.70537 35.1769 1.62845 33.7623C1.11756 33.6107 0.718432 33.4465 0.431059 33.2697C0.143686 33.0928 0 32.8402 0 32.5118H0ZM9.86647 16.2938H23.1335V10.6857C23.1335 9.0942 22.463 7.74269 21.1219 6.63118C19.8447 5.57019 18.312 5.02706 16.5239 5.0018C14.672 5.02706 13.1074 5.57019 11.8302 6.63118C10.521 7.74269 9.86647 9.0942 9.86647 10.6857V16.2938Z" fill="#747474"/>
</svg>
