<svg width="104" height="111" viewBox="0 0 104 111" fill="none" xmlns="http://www.w3.org/2000/svg">
<path d="M87.613 0C92.165 0 96.0166 1.8145 99.1679 5.4435C102.319 9.07249 103.93 13.4115 104 18.4606V92.4211C104 97.549 102.389 101.928 99.1679 105.557C95.9466 109.186 92.0949 111 87.613 111H27.3174C22.7655 111 18.8789 109.186 15.6575 105.557C12.4361 101.928 10.8604 97.549 10.9305 92.4211V86.2676H5.5732C4.03255 86.2676 2.737 85.6759 1.68655 84.4925C0.636104 83.3092 0.0758656 81.8891 0.00583581 80.2324C-0.0641939 78.5757 0.496044 77.1162 1.68655 75.8539C2.87706 74.5917 4.17261 73.9606 5.5732 73.9606H10.9305V61.6535H5.5732C4.03255 61.6535 2.737 61.0618 1.68655 59.8785C0.636104 58.6951 0.0758656 57.2356 0.00583581 55.5C-0.0641939 53.7644 0.496044 52.3049 1.68655 51.1215C2.87706 49.9382 4.17261 49.307 5.5732 49.2281H10.9305V37.0395H5.5732C4.03255 37.0395 2.737 36.4083 1.68655 35.1461C0.636104 33.8838 0.0758656 32.4243 0.00583581 30.7676C-0.0641939 29.1109 0.496044 27.6908 1.68655 26.5075C2.87706 25.3241 4.17261 24.7324 5.5732 24.7324H10.9305V18.4606C10.9305 13.3326 12.5061 8.9936 15.6575 5.4435C18.8088 1.89339 22.6955 0.0788913 27.3174 0H87.613ZM21.9602 18.4606V24.7324H27.3174V12.307C25.8468 12.307 24.5863 12.8987 23.5358 14.0821C22.4854 15.2655 21.9602 16.7249 21.9602 18.4606ZM21.9602 36.9211V49.2281H27.3174V36.9211H21.9602ZM21.9602 61.6535V73.9606H27.3174V61.6535H21.9602ZM21.9602 92.4211C21.9602 94.0778 22.4854 95.5373 23.5358 96.7996C24.5863 98.0618 25.8468 98.693 27.3174 98.693V86.2676H21.9602V92.4211ZM92.9703 92.4211V18.4606C92.9703 16.8038 92.4451 15.3444 91.3946 14.0821C90.3442 12.8198 89.0837 12.2281 87.613 12.307H32.8848V98.693H87.613C89.0837 98.693 90.3442 98.0618 91.3946 96.7996C92.4451 95.5373 92.9703 94.0778 92.9703 92.4211ZM49.2718 46.2697C49.2718 37.9861 52.9133 33.8444 60.1964 33.8444C67.5495 33.8444 71.2261 37.9861 71.2261 46.2697C71.2261 54.4744 67.5495 58.5768 60.1964 58.5768C52.9133 58.5768 49.2718 54.4744 49.2718 46.2697ZM60.1964 63.7836C64.1181 63.7836 67.3744 64.6514 69.9655 66.387C72.5566 68.1226 73.8522 70.2132 73.8522 72.6588C73.8522 73.8422 72.5216 74.8678 69.8605 75.7356C67.1994 76.6034 63.978 77.0373 60.1964 77.0373C56.0646 77.0373 52.7382 76.6034 50.2172 75.7356C47.6961 74.8678 46.4706 73.8422 46.5406 72.6588C46.5406 70.2921 47.7661 68.2015 50.2172 66.387C52.6682 64.5725 55.9946 63.7047 60.1964 63.7836Z" fill="#0099CB"/>
</svg>
