<svg width="102" height="106" viewBox="0 0 102 106" fill="none" xmlns="http://www.w3.org/2000/svg">
<path d="M0.00351712 95.3774V10.6226C0.00351712 7.68443 0.921486 5.19829 2.75742 3.16418C4.59336 1.13006 6.87128 0.0753376 9.59119 0H76.5009C78.2008 0 79.7308 0.678038 81.0907 2.03412L100.164 23.1663C101.388 24.6731 102 26.3682 102 28.2516V95.3774C102 98.3156 101.082 100.802 99.2461 102.836C97.4102 104.87 95.1322 105.925 92.4123 106H9.59119C6.93928 106 4.66136 104.945 2.75742 102.836C0.853488 100.726 -0.0644805 98.2402 0.00351712 95.3774ZM6.4293 95.3774C6.4293 96.4321 6.70129 97.2985 7.24527 97.9765C7.78925 98.6546 8.57122 98.9559 9.59119 98.8806H92.4123C93.3643 98.8806 94.1463 98.5792 94.7583 97.9765C95.3702 97.3738 95.6422 96.5075 95.5742 95.3774V31.7548H82.9267C80.2068 31.7548 77.9288 30.7377 76.0929 28.7036C74.257 26.6695 73.339 24.1834 73.339 21.2452V7.1194H9.59119C8.63922 7.1194 7.85725 7.45842 7.24527 8.13646C6.63329 8.8145 6.3613 9.64321 6.4293 10.6226V95.3774ZM12.7531 86.5629C12.7531 85.3575 13.2971 84.7548 14.385 84.7548H87.6185C88.7065 84.7548 89.2504 85.3575 89.2504 86.5629C89.2504 87.7683 88.7065 88.3333 87.6185 88.258H14.385C13.2971 88.258 12.7531 87.693 12.7531 86.5629ZM12.7531 75.9403C12.7531 74.7349 13.2971 74.1322 14.385 74.1322H87.6185C88.7065 74.1322 89.2504 74.7349 89.2504 75.9403C89.2504 77.1457 88.7065 77.7484 87.6185 77.7484H14.385C13.2971 77.7484 12.7531 77.1457 12.7531 75.9403ZM12.7531 65.3177C12.7531 64.1876 13.2971 63.6226 14.385 63.6226H87.6185C88.7065 63.6226 89.2504 64.1876 89.2504 65.3177C89.2504 66.4478 88.7065 67.0505 87.6185 67.1258H14.385C13.2971 67.1258 12.7531 66.5231 12.7531 65.3177ZM12.7531 54.8081C12.7531 53.6027 13.2971 53 14.385 53H87.6185C88.7065 53 89.2504 53.6027 89.2504 54.8081C89.2504 56.0135 88.7065 56.5785 87.6185 56.5032H14.385C13.2971 56.5032 12.7531 55.9382 12.7531 54.8081ZM12.7531 42.3774V21.2452C12.7531 20.1905 13.0591 19.3241 13.671 18.6461C14.283 17.968 15.031 17.6667 15.915 17.742H38.2522C39.2042 17.742 39.9521 18.0434 40.4961 18.6461C41.0401 19.2488 41.3461 20.1151 41.4141 21.2452V42.3774C41.4141 43.4321 41.1081 44.2985 40.4961 44.9765C39.8841 45.6546 39.1362 45.9559 38.2522 45.8806H15.915C15.031 45.8806 14.283 45.5793 13.671 44.9765C13.0591 44.3738 12.7531 43.5075 12.7531 42.3774ZM19.1789 38.8742H35.0903V24.7484H19.1789V38.8742ZM47.8399 44.1855C47.8399 42.9801 48.3498 42.3774 49.3698 42.3774H87.6185C88.7065 42.3774 89.2504 42.9801 89.2504 44.1855C89.2504 45.3909 88.7065 45.9559 87.6185 45.8806H49.3698C48.3498 45.8806 47.8399 45.3156 47.8399 44.1855ZM47.8399 33.5629C47.8399 32.3575 48.3498 31.7548 49.3698 31.7548H65.3833C66.4032 31.7548 66.9132 32.3575 66.9132 33.5629C66.9132 34.7683 66.4032 35.371 65.3833 35.371H49.3698C48.3498 35.371 47.8399 34.7683 47.8399 33.5629ZM47.8399 22.9403C47.8399 21.8102 48.3498 21.2452 49.3698 21.2452H65.3833C66.4032 21.2452 66.9132 21.8102 66.9132 22.9403C66.9132 24.0704 66.4032 24.6731 65.3833 24.7484H49.3698C48.3498 24.7484 47.8399 24.1457 47.8399 22.9403ZM76.5009 21.2452C76.5009 23.1286 77.1469 24.7861 78.4388 26.2175C79.7308 27.6489 81.1927 28.3269 82.8247 28.2516H95.5742L76.5009 7.1194V21.2452Z" fill="#0099CB"/>
</svg>
