<svg width="15" height="20" viewBox="0 0 15 20" fill="none" xmlns="http://www.w3.org/2000/svg">
<path d="M0 10.0004L11.1616 0.652974C11.5042 0.366096 11.9133 0.222656 12.3891 0.222656C12.8458 0.222656 13.255 0.366096 13.6166 0.652974C13.9592 0.939853 14.1304 1.29048 14.1304 1.70486C14.1304 2.11924 13.9592 2.4619 13.6166 2.73284L4.93852 10.0004L13.6166 17.2919C13.9592 17.5629 14.1304 17.9055 14.1304 18.3199C14.1304 18.7343 13.9592 19.077 13.6166 19.3479C13.274 19.6348 12.8649 19.7782 12.3891 19.7782C11.9133 19.7782 11.5042 19.6348 11.1616 19.3479L0 10.0004Z" fill="black"/>
</svg>
