<svg width="15" height="20" viewBox="0 0 15 20" fill="none" xmlns="http://www.w3.org/2000/svg">
<path d="M0.869568 18.2961C0.869568 17.8977 1.04085 17.555 1.3834 17.2682L10.09 10.001L1.3834 2.73389C1.04085 2.44702 0.869568 2.09642 0.869568 1.68206C0.869568 1.26771 1.04085 0.925068 1.3834 0.654143C1.72596 0.383219 2.14464 0.239788 2.63944 0.223852C3.13424 0.207915 3.54341 0.351345 3.86693 0.654143L15 10.001L3.86693 19.3479C3.50535 19.6348 3.09618 19.7782 2.63944 19.7782C2.1827 19.7782 1.76402 19.6348 1.3834 19.3479C1.04085 19.0611 0.869568 18.7105 0.869568 18.2961H0.869568Z" fill="black"/>
</svg>
