<svg width="115" height="106" viewBox="0 0 115 106" fill="none" xmlns="http://www.w3.org/2000/svg">
<g clip-path="url(#clip0_251_1103)">
<path d="M8 103C8 102.347 8.03255 101.512 8.09766 100.496C8.16276 99.4805 8.52083 97.7751 9.17187 95.3804C9.82292 92.9857 10.7018 91.2078 11.8086 90.0467C12.9154 88.8131 15.1289 87.4343 18.4492 85.9104C21.7695 84.3864 25.513 82.8262 29.6797 81.2298C33.8464 79.6333 36.8737 78.2545 38.7617 77.0934C41.2357 75.7146 43.1562 73.6827 44.5234 70.9977C45.8906 68.3127 46.5417 65.5552 46.4766 62.725C46.4766 60.7657 45.4349 58.4799 43.3516 55.8674C41.2031 53.1099 39.4779 49.4089 38.1758 44.7646C36.8737 40.1203 36.2227 34.714 36.2227 28.5458C36.2227 23.9014 36.8086 19.8014 37.9805 16.2456C39.1523 12.6898 40.7474 9.78707 42.7656 7.53748C44.7839 5.28788 47.095 3.65512 49.6992 2.63917C52.3034 1.62323 55.0703 1.07897 58 1.0064C60.9297 0.933836 63.6966 1.47809 66.3008 2.63917C68.9049 3.80025 71.2161 5.43302 73.2344 7.53748C75.2526 9.64193 76.8476 12.5446 78.0195 16.2456C79.1914 19.9465 79.7773 24.0466 79.7773 28.5458C79.7773 34.6414 79.1263 40.0477 77.8242 44.7646C76.5221 49.4815 74.8294 53.1824 72.7461 55.8674C70.5976 58.5524 69.5234 60.8383 69.5234 62.725C69.5234 65.5552 70.207 68.3127 71.5742 70.9977C72.9414 73.6827 74.862 75.7146 77.3359 77.0934C79.224 78.1819 82.2513 79.5607 86.418 81.2298C90.5846 82.8988 94.2956 84.459 97.5508 85.9104C100.806 87.3617 103.02 88.7405 104.191 90.0467C105.298 91.2804 106.177 92.9857 106.828 95.1627C107.479 97.3397 107.837 99.1902 107.902 100.714L108 103H8H8Z" fill="#0099CB"/>
</g>
<defs>
<clipPath id="clip0_251_1103">
<rect width="115" height="106" fill="white"/>
</clipPath>
</defs>
</svg>
