<svg width="115" height="106" viewBox="0 0 115 106" fill="none" xmlns="http://www.w3.org/2000/svg">
<g clip-path="url(#clip0_127_680)">
<path d="M35.8292 53C29.335 53.212 23.9954 55.7207 19.8103 60.526H11.6927C8.44563 60.526 5.66759 59.7487 3.35857 58.194C1.04955 56.6393 -0.068877 54.3073 0.00327986 51.198C0.00327986 37.2767 2.49269 30.316 7.47152 30.316C7.76014 30.316 8.6621 30.7047 10.1774 31.482C11.6927 32.2593 13.6409 33.1073 16.0221 34.026C18.4033 34.9447 20.7845 35.3687 23.1656 35.298C25.9076 35.298 28.6135 34.8387 31.2833 33.92C31.0668 35.404 30.9586 36.7113 30.9586 37.842C30.9586 43.354 32.5821 48.4067 35.8292 53ZM100.554 90.736C100.554 95.4 99.0747 99.11 96.1162 101.866C93.1578 104.622 89.2613 106 84.4268 106H31.608C26.7013 106 22.8049 104.622 19.9186 101.866C17.0323 99.11 15.5531 95.4 15.4809 90.736C15.4809 88.616 15.5531 86.5667 15.6974 84.588C15.8417 82.6093 16.1303 80.454 16.5633 78.122C16.9962 75.79 17.5013 73.6347 18.0786 71.656C18.6558 69.6773 19.5217 67.7693 20.6762 65.932C21.8307 64.0947 23.0935 62.5047 24.4645 61.162C25.8354 59.8193 27.5672 58.7593 29.6598 57.982C31.7523 57.2047 33.9892 56.816 36.3703 56.816C36.8033 56.816 37.6692 57.24 38.968 58.088C40.2668 58.936 41.746 59.8547 43.4056 60.844C45.0652 61.8333 47.1939 62.7873 49.7915 63.706C52.3892 64.6247 55.1311 65.0487 58.0174 64.978C60.9037 64.9073 63.6096 64.4833 66.135 63.706C68.6605 62.9287 70.8252 61.9747 72.6292 60.844C74.4331 59.7133 75.9123 58.7947 77.0668 58.088C78.2213 57.3813 79.0511 56.9573 79.5562 56.816C82.0817 56.816 84.3547 57.2047 86.375 57.982C88.3954 58.7593 90.0911 59.8193 91.4621 61.162C92.8331 62.5047 94.0958 64.0947 95.2503 65.932C96.4049 67.7693 97.2707 69.6773 97.848 71.656C98.4252 73.6347 98.9664 75.79 99.4715 78.122C99.9766 80.454 100.265 82.6093 100.337 84.588C100.41 86.5667 100.482 88.616 100.554 90.736ZM38.6433 15.158C38.6433 19.3273 37.128 22.896 34.0974 25.864C31.0668 28.832 27.4229 30.316 23.1656 30.316C18.9084 30.316 15.2645 28.832 12.2339 25.864C9.20328 22.896 7.68799 19.3273 7.68799 15.158C7.68799 10.9887 9.20328 7.42 12.2339 4.452C15.2645 1.484 18.9084 0 23.1656 0C27.4229 0 31.0668 1.484 34.0974 4.452C37.128 7.42 38.6433 10.9887 38.6433 15.158ZM81.1798 37.842C81.1798 44.1313 78.9068 49.502 74.3609 53.954C69.815 58.406 64.3672 60.5967 58.0174 60.526C51.6676 60.4553 46.1837 58.2647 41.5656 53.954C36.9476 49.6433 34.6747 44.2727 34.7468 37.842C34.819 31.4113 37.0919 26.076 41.5656 21.836C46.0394 17.596 51.5233 15.37 58.0174 15.158C64.5115 14.946 69.9594 17.172 74.3609 21.836C78.7625 26.5 81.0354 31.8353 81.1798 37.842ZM115.923 51.198C115.923 54.2367 114.805 56.5687 112.568 58.194C110.331 59.8193 107.553 60.5967 104.234 60.526H96.1162C92.0033 55.7207 86.6998 53.212 80.2056 53C83.4527 48.4067 85.0762 43.354 85.0762 37.842C85.0762 36.7113 84.968 35.404 84.7515 33.92C87.4213 34.8387 90.0911 35.298 92.7609 35.298C95.1421 35.298 97.5594 34.874 100.013 34.026C102.466 33.178 104.414 32.33 105.857 31.482C107.301 30.634 108.166 30.2453 108.455 30.316C113.434 30.316 115.923 37.2767 115.923 51.198ZM108.239 15.158C108.239 19.3273 106.723 22.896 103.693 25.864C100.662 28.832 97.0182 30.316 92.7609 30.316C88.5037 30.316 84.8598 28.832 81.8292 25.864C78.7986 22.896 77.2833 19.3273 77.2833 15.158C77.2833 10.9887 78.7986 7.42 81.8292 4.452C84.8598 1.484 88.5037 0 92.7609 0C97.0182 0 100.662 1.484 103.693 4.452C106.723 7.42 108.239 10.9887 108.239 15.158Z" fill="#0099CB"/>
</g>
<defs>
<clipPath id="clip0_127_680">
<rect width="115" height="106" fill="white"/>
</clipPath>
</defs>
</svg>
