<svg width="115" height="106" viewBox="0 0 115 106" fill="none" xmlns="http://www.w3.org/2000/svg">
<g clip-path="url(#clip0_251_1076)">
<path d="M53.3854 52.9461C53.3854 48.7046 51.8626 45.0743 48.817 42.0549C45.7714 39.0356 42.1095 37.5259 37.8312 37.5259C33.5529 37.5259 29.8909 39.0356 26.8453 42.0549C23.7997 45.0743 22.2769 48.7046 22.2769 52.9461C22.2769 57.1875 23.7997 60.8179 26.8453 63.8372C29.8909 66.8566 33.5529 68.3662 37.8312 68.3662C42.1095 68.3662 45.7714 66.8566 48.817 63.8372C51.8626 60.8179 53.3854 57.1875 53.3854 52.9461ZM100.048 83.7864C100.048 81.7016 99.2504 79.8684 97.6551 78.2869C96.0598 76.7053 94.2469 75.9505 92.2166 76.0224C90.1862 76.0943 88.3733 76.8491 86.778 78.2869C85.1827 79.7247 84.4213 81.5578 84.4938 83.7864C84.4938 85.8711 85.2552 87.6684 86.778 89.178C88.3008 90.6877 90.1137 91.4425 92.2166 91.4425C94.3195 91.4425 96.1686 90.6877 97.7639 89.178C99.3592 87.6684 100.121 85.8711 100.048 83.7864ZM100.048 22.1058C100.048 20.021 99.2504 18.2238 97.6551 16.7141C96.0598 15.2045 94.2469 14.4496 92.2166 14.4496C90.1862 14.4496 88.3733 15.2045 86.778 16.7141C85.1827 18.2238 84.4213 20.021 84.4938 22.1058C84.4938 24.2625 85.2552 26.0956 86.778 27.6053C88.3008 29.115 90.1137 29.8698 92.2166 29.8698C94.3195 29.8698 96.1686 29.115 97.7639 27.6053C99.3592 26.0956 100.121 24.2625 100.048 22.1058ZM76.6623 47.4466V58.5534C76.6623 58.9847 76.5173 59.3801 76.2273 59.7396C75.9372 60.099 75.6109 60.3147 75.2483 60.3866L65.894 61.8962C65.459 63.2621 64.8063 64.7718 63.9362 66.4252C65.3139 68.3662 67.1268 70.6667 69.3747 73.3266C69.6648 73.7579 69.8098 74.1533 69.8098 74.5127C69.8098 75.0159 69.6648 75.4113 69.3747 75.6989C68.432 76.921 66.7642 78.7182 64.3712 81.0905C61.9783 83.4629 60.383 84.649 59.5853 84.649C59.1502 84.649 58.7514 84.5053 58.3888 84.2177L51.4275 78.826C49.9047 79.6168 48.3457 80.2279 46.7504 80.6592C46.3153 84.9725 45.844 88.0997 45.3364 90.0407C45.0463 90.9752 44.4299 91.4425 43.4873 91.4425H32.1751C31.74 91.4425 31.3412 91.2987 30.9786 91.0112C30.616 90.7236 30.4348 90.3642 30.4348 89.9329L29.0207 80.767C27.643 80.3357 26.1202 79.6887 24.4524 78.826L17.2735 84.2177C16.9834 84.5053 16.5846 84.649 16.077 84.649C15.6419 84.649 15.2068 84.5053 14.7718 84.2177C8.97065 78.826 6.0701 75.591 6.0701 74.5127C6.0701 74.1533 6.21513 73.7938 6.50518 73.4344C6.86775 72.8593 7.70166 71.7809 9.00691 70.1994C10.3122 68.6178 11.2548 67.3957 11.835 66.5331C10.8923 64.8077 10.1671 63.1543 9.65954 61.5727L0.41402 60.1709C0.0514509 60.099 -0.274861 59.9193 -0.564917 59.6317C-0.854972 59.3442 -1 58.9488 -1 58.4456V47.3388C-1 46.9074 -0.854972 46.512 -0.564917 46.1526C-0.274861 45.7932 0.0514509 45.5775 0.41402 45.5056L9.76831 43.9959C10.2759 42.63 10.9285 41.1204 11.7262 39.4669C10.3484 37.5259 8.53557 35.2255 6.28764 32.5656C5.99759 32.1343 5.85256 31.7389 5.85256 31.3795C5.85256 30.8762 5.99759 30.4808 6.28764 30.1933C7.15781 28.9712 8.82563 27.174 11.2911 24.8016C13.7566 22.4293 15.3519 21.2431 16.077 21.2431C16.5121 21.2431 16.9472 21.3869 17.3823 21.6745L24.3436 27.0661C25.7214 26.3472 27.2804 25.7002 29.0207 25.1251C29.4558 20.8118 29.9272 17.7206 30.4348 15.8515C30.6523 14.9169 31.2324 14.4496 32.1751 14.4496H43.4873C43.9223 14.4496 44.3212 14.5934 44.6837 14.881C45.0463 15.1685 45.2638 15.528 45.3364 15.9593L46.7504 25.1251C48.1281 25.5565 49.6147 26.1675 51.21 26.9583L58.3888 21.6745C58.7514 21.3869 59.1502 21.2431 59.5853 21.2431C60.0929 21.2431 60.528 21.3869 60.8906 21.6745C66.7642 27.0661 69.701 30.3011 69.701 31.3795C69.701 31.7389 69.556 32.0983 69.2659 32.4578C68.7583 33.1048 67.8882 34.1831 66.6554 35.6928C65.4227 37.2024 64.5163 38.4246 63.9362 39.3591C64.8788 41.3001 65.5677 42.9535 66.0028 44.3194L75.2483 45.6134C75.6109 45.7572 75.9372 45.9729 76.2273 46.2604C76.5173 46.548 76.6623 46.9434 76.6623 47.4466ZM115.494 79.5809V87.9919C115.494 88.6389 112.484 89.2499 106.466 89.825C106.03 90.9034 105.45 91.9457 104.725 92.9522C106.756 97.4812 107.771 100.249 107.771 101.255C107.771 101.399 107.698 101.543 107.553 101.687C102.622 104.562 100.121 106 100.048 106C99.6855 106 98.7428 105.03 97.22 103.089C95.6972 101.148 94.6458 99.8176 94.0657 99.0987C93.268 99.1706 92.6516 99.2065 92.2166 99.2065C91.7815 99.2065 91.1651 99.1706 90.3675 99.0987C89.8599 99.8895 88.8084 101.219 87.2131 103.089C85.6178 104.958 84.7114 105.928 84.4938 106C84.4213 106 81.9196 104.562 76.9887 101.687C76.7711 101.543 76.6623 101.399 76.6623 101.255C76.6623 100.249 77.7138 97.4812 79.8167 92.9522C79.0915 91.9457 78.4752 90.9034 77.9676 89.825C71.9489 89.2499 68.9396 88.6389 68.9396 87.9919V79.5809C68.9396 78.9339 71.9489 78.2869 77.9676 77.6399C78.4752 76.4897 79.0915 75.4473 79.8167 74.5127C77.7138 69.9837 76.6623 67.216 76.6623 66.2096C76.6623 66.0658 76.7711 65.922 76.9887 65.7782C77.1337 65.7063 77.8226 65.311 79.0553 64.5921C80.288 63.8732 81.4845 63.1902 82.6447 62.5432C83.805 61.8962 84.4213 61.5727 84.4938 61.5727C84.7839 61.5727 85.6903 62.5073 87.2131 64.3764C88.7359 66.2455 89.7873 67.6114 90.3675 68.4741C91.2376 68.4022 91.854 68.3662 92.2166 68.3662C92.5791 68.3662 93.1955 68.4022 94.0657 68.4741C96.0961 65.5985 97.9452 63.334 99.613 61.6806L100.048 61.5727C100.193 61.5727 102.695 62.9746 107.553 65.7782C107.698 65.922 107.771 66.0658 107.771 66.2096C107.771 67.216 106.756 69.9837 104.725 74.5127C105.378 75.4473 105.958 76.4897 106.466 77.6399C112.484 78.2869 115.494 78.9339 115.494 79.5809ZM115.494 17.9003V26.3113C115.494 26.9583 112.484 27.6053 106.466 28.2523C106.03 29.3306 105.45 30.373 104.725 31.3795C106.756 35.9084 107.771 38.6762 107.771 39.6826C107.771 39.8264 107.698 39.9702 107.553 40.1139C102.622 42.9176 100.121 44.3194 100.048 44.3194C99.6855 44.3194 98.7428 43.3849 97.22 41.5158C95.6972 39.6467 94.6458 38.2808 94.0657 37.4181C93.268 37.49 92.6516 37.5259 92.2166 37.5259C91.7815 37.5259 91.1651 37.49 90.3675 37.4181C89.8599 38.2808 88.8084 39.6467 87.2131 41.5158C85.6178 43.3849 84.7114 44.3194 84.4938 44.3194C84.4213 44.3194 81.9196 42.9176 76.9887 40.1139C76.7711 39.9702 76.6623 39.8264 76.6623 39.6826C76.6623 38.6762 77.7138 35.9084 79.8167 31.3795C79.0915 30.373 78.4752 29.3306 77.9676 28.2523C71.9489 27.6053 68.9396 26.9583 68.9396 26.3113V17.9003C68.9396 17.2533 71.9489 16.6423 77.9676 16.0671C78.4752 14.9169 79.0915 13.8745 79.8167 12.94C77.7138 8.41099 76.6623 5.64327 76.6623 4.63683C76.6623 4.49305 76.7711 4.34927 76.9887 4.20549C77.1337 4.1336 77.8226 3.73822 79.0553 3.01933C80.288 2.30044 81.4845 1.6175 82.6447 0.970498C83.805 0.323499 84.4213 0 84.4938 0C84.7839 0 85.6903 0.934554 87.2131 2.80366C88.7359 4.67277 89.7873 6.03866 90.3675 6.90132C91.2376 6.75754 91.854 6.68566 92.2166 6.68566C92.5791 6.68566 93.1955 6.75754 94.0657 6.90132C96.0961 4.02577 97.9452 1.76128 99.613 0.107833L100.048 0C100.193 0 102.695 1.40183 107.553 4.20549C107.698 4.34927 107.771 4.49305 107.771 4.63683C107.771 5.64327 106.756 8.41099 104.725 12.94C105.378 13.8745 105.958 14.9169 106.466 16.0671C112.484 16.6423 115.494 17.2533 115.494 17.9003Z" fill="#0099CB"/>
</g>
<defs>
<clipPath id="clip0_251_1076">
<rect width="115" height="106" fill="white"/>
</clipPath>
</defs>
</svg>
