<svg width="115" height="106" viewBox="0 0 115 106" fill="none" xmlns="http://www.w3.org/2000/svg">
<g clip-path="url(#clip0_251_1096)">
<g clip-path="url(#clip1_251_1096)">
<path d="M4 53.0007C4 38.3727 9.19386 25.8647 19.5816 15.4767C29.9693 5.08872 42.4416 -0.0699505 56.9986 0.000716216C71.5555 0.0713829 84.0632 5.23005 94.5216 15.4767C104.98 25.7234 110.138 38.2314 109.997 53.0007C109.856 67.7701 104.697 80.2781 94.5216 90.5247C84.3458 100.771 71.8382 105.93 56.9986 106.001C42.159 106.071 29.6866 100.913 19.5816 90.5247C9.47652 80.1367 4.28266 67.6287 4 53.0007H4ZM43.5369 46.0047L44.3849 50.1387L48.0948 49.2907C49.8614 49.2907 50.7448 50.5274 50.7448 53.0007V78.8647C50.7448 80.2781 50.2854 81.3027 49.3668 81.9387C48.0948 82.7867 46.2222 83.4934 43.7489 84.0587L44.5969 87.7687C50.5328 87.2034 54.702 86.9207 57.1046 86.9207C59.5072 86.9207 63.6764 87.2034 69.6123 87.7687L70.4602 84.0587C67.987 83.3521 66.1143 82.6454 64.8424 81.9387C64.1357 81.5147 63.7471 81.1261 63.6764 80.7727C63.5351 80.4901 63.4644 79.8541 63.4644 78.8647V53.4247C63.4644 49.9621 63.9944 46.7821 65.0544 43.8847L63.0404 41.4467C60.7791 41.4467 57.5992 41.9061 53.5007 42.8247C49.4021 43.7434 46.0809 44.8034 43.5369 46.0047ZM47.2468 25.3347C47.2468 27.4547 47.9535 29.2214 49.3668 30.6347C50.8507 31.9067 52.8294 32.5427 55.3026 32.5427C57.7759 32.5427 59.7898 31.8714 61.3445 30.5287C62.8991 29.1861 63.6764 27.4547 63.6764 25.3347C63.6764 23.2147 62.8991 21.4834 61.3445 20.1407C59.7898 18.798 57.7759 18.1621 55.3026 18.2327C52.8294 18.3034 50.8507 18.904 49.3668 20.0347C47.9535 21.448 47.2468 23.2147 47.2468 25.3347Z" fill="#0099CB"/>
</g>
</g>
<defs>
<clipPath id="clip0_251_1096">
<rect width="115" height="106" fill="white"/>
</clipPath>
<clipPath id="clip1_251_1096">
<rect width="115" height="106" fill="white"/>
</clipPath>
</defs>
</svg>
