<svg width="33" height="33" viewBox="0 0 33 33" fill="none" xmlns="http://www.w3.org/2000/svg">
<path d="M0.00126913 30.2268V5.87377C0.00126913 5.1038 0.265249 4.44383 0.793208 3.89385C1.32117 3.34387 1.98112 3.07988 2.77306 3.10188H7.22771V1.02296C7.22771 0.736972 7.32671 0.494981 7.52469 0.296989C7.72268 0.0989962 7.96466 0 8.25064 0C8.53661 0 8.77859 0.0989962 8.97658 0.296989C9.17456 0.494981 9.27356 0.736972 9.27356 1.02296V3.10188H15.4771V1.02296C15.4771 0.736972 15.5761 0.494981 15.7741 0.296989C15.972 0.0989962 16.214 0 16.5 0C16.786 0 17.028 0.0989962 17.2259 0.296989C17.4239 0.494981 17.5229 0.736972 17.5229 1.02296V3.10188H23.7264V1.02296C23.7264 0.736972 23.8254 0.494981 24.0234 0.296989C24.2214 0.0989962 24.4634 0 24.7494 0C25.0353 0 25.2773 0.0989962 25.4753 0.296989C25.6733 0.494981 25.7723 0.736972 25.7723 1.02296V3.10188H30.2269C30.9969 3.10188 31.6568 3.36587 32.2068 3.89385C32.7568 4.42183 33.0207 5.0818 32.9987 5.87377V30.2268C32.9987 30.9968 32.7348 31.6568 32.2068 32.2068C31.6788 32.7567 31.0189 33.0207 30.2269 32.9987H2.77306C2.00312 32.9987 1.34317 32.7347 0.793208 32.2068C0.243251 31.6788 -0.0207292 31.0188 0.00126913 30.2268ZM2.08011 30.2268C2.08011 30.4468 2.13511 30.6228 2.2451 30.7548C2.35509 30.8868 2.53107 30.9528 2.77306 30.9528H30.2269C30.4469 30.9528 30.6229 30.8868 30.7549 30.7548C30.8869 30.6228 30.9419 30.4468 30.9199 30.2268V5.87377C30.9199 5.65378 30.8649 5.47779 30.7549 5.34579C30.6449 5.2138 30.4689 5.1478 30.2269 5.1478H25.7723V7.22672C25.7723 7.51271 25.6733 7.7547 25.4753 7.95269C25.2773 8.15069 25.0353 8.24968 24.7494 8.24968C24.4634 8.24968 24.2214 8.15069 24.0234 7.95269C23.8254 7.7547 23.7264 7.51271 23.7264 7.22672V5.1478H17.5229V7.22672C17.5229 7.51271 17.4239 7.7547 17.2259 7.95269C17.028 8.15069 16.786 8.24968 16.5 8.24968C16.214 8.24968 15.972 8.15069 15.7741 7.95269C15.5761 7.7547 15.4771 7.51271 15.4771 7.22672V5.1478H9.27356V7.22672C9.27356 7.51271 9.17456 7.7547 8.97658 7.95269C8.77859 8.15069 8.53661 8.24968 8.25064 8.24968C7.96466 8.24968 7.72268 8.15069 7.52469 7.95269C7.32671 7.7547 7.22771 7.51271 7.22771 7.22672V5.1478H2.77306C2.55307 5.1478 2.37709 5.2138 2.2451 5.34579C2.11311 5.47779 2.05811 5.65378 2.08011 5.87377V30.2268ZM7.22771 25.772V22.6701H11.3524V25.772H7.22771ZM7.22771 20.6242V17.5223H11.3524V20.6242H7.22771ZM7.22771 15.4764V12.3745H11.3524V15.4764H7.22771ZM14.4542 25.772V22.6701H18.5788V25.772H14.4542ZM14.4542 20.6242V17.5223H18.5788V20.6242H14.4542ZM14.4542 15.4764V12.3745H18.5788V15.4764H14.4542ZM21.6476 25.772V22.6701H25.7723V25.772H21.6476ZM21.6476 20.6242V17.5223H25.7723V20.6242H21.6476ZM21.6476 15.4764V12.3745H25.7723V15.4764H21.6476Z" fill="#454A4B"/>
</svg>
