<svg width="157" height="140" viewBox="0 0 157 140" fill="none" xmlns="http://www.w3.org/2000/svg">
<path d="M73.2479 69.9288C73.2479 64.3269 71.1689 59.532 67.0111 55.5443C62.8532 51.5565 57.8538 49.5626 52.013 49.5626C46.1722 49.5626 41.1728 51.5565 37.0149 55.5443C32.857 59.532 30.7781 64.3269 30.7781 69.9288C30.7781 75.5307 32.857 80.3255 37.0149 84.3133C41.1728 88.3011 46.1722 90.295 52.013 90.295C57.8538 90.295 62.8532 88.3011 67.0111 84.3133C71.1689 80.3255 73.2479 75.5307 73.2479 69.9288ZM136.953 110.661C136.953 107.908 135.864 105.487 133.686 103.398C131.508 101.309 129.033 100.312 126.261 100.407C123.489 100.502 121.014 101.499 118.836 103.398C116.658 105.297 115.619 107.718 115.718 110.661C115.718 113.415 116.757 115.788 118.836 117.782C120.915 119.776 123.39 120.773 126.261 120.773C129.132 120.773 131.656 119.776 133.834 117.782C136.012 115.788 137.052 113.415 136.953 110.661ZM136.953 29.1963C136.953 26.4429 135.864 24.0692 133.686 22.0753C131.508 20.0814 129.033 19.0844 126.261 19.0844C123.489 19.0844 121.014 20.0814 118.836 22.0753C116.658 24.0692 115.619 26.4429 115.718 29.1963C115.718 32.0448 116.757 34.4659 118.836 36.4598C120.915 38.4537 123.39 39.4507 126.261 39.4507C129.132 39.4507 131.656 38.4537 133.834 36.4598C136.012 34.4659 137.052 32.0448 136.953 29.1963ZM105.026 62.6653V77.3347C105.026 77.9044 104.828 78.4266 104.432 78.9013C104.036 79.3761 103.591 79.6609 103.096 79.7559L90.3249 81.7497C89.7309 83.5537 88.8399 85.5476 87.652 87.7314C89.5329 90.295 92.0079 93.3333 95.0768 96.8464C95.4728 97.4161 95.6708 97.9383 95.6708 98.413C95.6708 99.0777 95.4728 99.5999 95.0768 99.9797C93.7898 101.594 91.5129 103.967 88.246 107.101C84.9791 110.234 82.8011 111.801 81.7121 111.801C81.1182 111.801 80.5737 111.611 80.0787 111.231L70.575 104.11C68.496 105.154 66.3676 105.961 64.1896 106.531C63.5957 112.228 62.9522 116.358 62.2592 118.922C61.8632 120.156 61.0217 120.773 59.7348 120.773H44.2912C43.6972 120.773 43.1527 120.583 42.6578 120.203C42.1628 119.824 41.9153 119.349 41.9153 118.779L39.9848 106.673C38.1039 106.104 36.0249 105.249 33.748 104.11L23.9473 111.231C23.5513 111.611 23.0068 111.801 22.3138 111.801C21.7199 111.801 21.1259 111.611 20.5319 111.231C12.6121 104.11 8.65222 99.8372 8.65222 98.413C8.65222 97.9383 8.85022 97.4635 9.24621 96.9888C9.74119 96.2292 10.8797 94.805 12.6616 92.7162C14.4436 90.6273 15.7305 89.0132 16.5225 87.8739C15.2355 85.5951 14.2456 83.4113 13.5526 81.3225L0.930445 79.471C0.435459 79.3761 -0.0100282 79.1387 -0.406017 78.7589C-0.802006 78.3791 -1 77.8569 -1 77.1923V62.5229C-1 61.9532 -0.802006 61.431 -0.406017 60.9563C-0.0100282 60.4815 0.435459 60.1967 0.930445 60.1017L13.7011 58.1078C14.3941 56.3038 15.285 54.3099 16.374 52.1261C14.4931 49.5626 12.0181 46.5242 8.94922 43.0112C8.55323 42.4415 8.35523 41.9193 8.35523 41.4446C8.35523 40.7799 8.55323 40.2577 8.94922 39.8779C10.1372 38.2638 12.4141 35.8901 15.78 32.7569C19.1459 29.6236 21.3239 28.057 22.3138 28.057C22.9078 28.057 23.5018 28.2469 24.0958 28.6267L33.5995 35.7477C35.4805 34.7982 37.6089 33.9437 39.9848 33.1841C40.5788 27.4873 41.2223 23.4045 41.9153 20.9359C42.2123 19.7016 43.0042 19.0844 44.2912 19.0844H59.7348C60.3288 19.0844 60.8732 19.2743 61.3682 19.6541C61.8632 20.0339 62.1602 20.5086 62.2592 21.0783L64.1896 33.1841C66.0706 33.7538 68.1 34.5609 70.278 35.6053L80.0787 28.6267C80.5737 28.2469 81.1182 28.057 81.7121 28.057C82.4051 28.057 82.9991 28.2469 83.4941 28.6267C91.5129 35.7477 95.5222 40.0203 95.5222 41.4446C95.5222 41.9193 95.3243 42.394 94.9283 42.8688C94.2353 43.7233 93.0473 45.1475 91.3644 47.1414C89.6814 49.1353 88.444 50.7494 87.652 51.9837C88.9389 54.5473 89.8794 56.7311 90.4734 58.5351L103.096 60.2442C103.591 60.434 104.036 60.7189 104.432 61.0987C104.828 61.4785 105.026 62.0007 105.026 62.6653ZM158.039 105.107V116.216C158.039 117.07 153.931 117.877 145.714 118.637C145.12 120.061 144.328 121.438 143.338 122.767C146.11 128.749 147.496 132.404 147.496 133.733C147.496 133.923 147.397 134.113 147.199 134.303C140.467 138.101 137.052 140 136.953 140C136.458 140 135.171 138.718 133.092 136.155C131.013 133.591 129.577 131.835 128.785 130.885C127.696 130.98 126.855 131.027 126.261 131.027C125.667 131.027 124.825 130.98 123.736 130.885C123.043 131.929 121.608 133.686 119.43 136.155C117.252 138.623 116.015 139.905 115.718 140C115.619 140 112.203 138.101 105.471 134.303C105.174 134.113 105.026 133.923 105.026 133.733C105.026 132.404 106.461 128.749 109.332 122.767C108.342 121.438 107.501 120.061 106.808 118.637C98.5912 117.877 94.4828 117.07 94.4828 116.216V105.107C94.4828 104.252 98.5912 103.398 106.808 102.543C107.501 101.024 108.342 99.6473 109.332 98.413C106.461 92.4313 105.026 88.7759 105.026 87.4466C105.026 87.2567 105.174 87.0668 105.471 86.8769C105.669 86.782 106.61 86.2597 108.293 85.3103C109.976 84.3608 111.609 83.4588 113.193 82.6043C114.777 81.7497 115.619 81.3225 115.718 81.3225C116.114 81.3225 117.351 82.5568 119.43 85.0254C121.509 87.4941 122.944 89.2981 123.736 90.4374C124.924 90.3425 125.766 90.295 126.261 90.295C126.756 90.295 127.597 90.3425 128.785 90.4374C131.557 86.6395 134.082 83.6487 136.359 81.4649L136.953 81.3225C137.151 81.3225 140.566 83.174 147.199 86.8769C147.397 87.0668 147.496 87.2567 147.496 87.4466C147.496 88.7759 146.11 92.4313 143.338 98.413C144.229 99.6473 145.021 101.024 145.714 102.543C153.931 103.398 158.039 104.252 158.039 105.107ZM158.039 23.6419V34.7508C158.039 35.6053 153.931 36.4598 145.714 37.3143C145.12 38.7386 144.328 40.1153 143.338 41.4446C146.11 47.4262 147.496 51.0817 147.496 52.411C147.496 52.6009 147.397 52.7908 147.199 52.9807C140.467 56.6836 137.052 58.5351 136.953 58.5351C136.458 58.5351 135.171 57.3008 133.092 54.8321C131.013 52.3635 129.577 50.5595 128.785 49.4201C127.696 49.5151 126.855 49.5626 126.261 49.5626C125.667 49.5626 124.825 49.5151 123.736 49.4201C123.043 50.5595 121.608 52.3635 119.43 54.8321C117.252 57.3008 116.015 58.5351 115.718 58.5351C115.619 58.5351 112.203 56.6836 105.471 52.9807C105.174 52.7908 105.026 52.6009 105.026 52.411C105.026 51.0817 106.461 47.4262 109.332 41.4446C108.342 40.1153 107.501 38.7386 106.808 37.3143C98.5912 36.4598 94.4828 35.6053 94.4828 34.7508V23.6419C94.4828 22.7874 98.5912 21.9803 106.808 21.2208C107.501 19.7016 108.342 18.3249 109.332 17.0905C106.461 11.1088 105.026 7.45337 105.026 6.12411C105.026 5.93422 105.174 5.74432 105.471 5.55443C105.669 5.45948 106.61 4.93727 108.293 3.98779C109.976 3.03832 111.609 2.13632 113.193 1.28179C114.777 0.427263 115.619 0 115.718 0C116.114 0 117.351 1.23432 119.43 3.70295C121.509 6.17158 122.944 7.97558 123.736 9.11495C124.924 8.92506 125.766 8.83011 126.261 8.83011C126.756 8.83011 127.597 8.92506 128.785 9.11495C131.557 5.31706 134.082 2.32621 136.359 0.142421L136.953 0C137.151 0 140.566 1.85148 147.199 5.55443C147.397 5.74432 147.496 5.93422 147.496 6.12411C147.496 7.45337 146.11 11.1088 143.338 17.0905C144.229 18.3249 145.021 19.7016 145.714 21.2208C153.931 21.9803 158.039 22.7874 158.039 23.6419Z" fill="#454A4B"/>
</svg>
