<svg width="40" height="36" viewBox="0 0 40 36" fill="none" xmlns="http://www.w3.org/2000/svg">
<path d="M18.9167 17.8163C18.9167 16.389 18.387 15.1674 17.3277 14.1514C16.2683 13.1354 14.9946 12.6274 13.5065 12.6274C12.0184 12.6274 10.7447 13.1354 9.68533 14.1514C8.626 15.1674 8.09633 16.389 8.09633 17.8163C8.09633 19.2435 8.626 20.4651 9.68533 21.4811C10.7447 22.4971 12.0184 23.0051 13.5065 23.0051C14.9946 23.0051 16.2683 22.4971 17.3277 21.4811C18.387 20.4651 18.9167 19.2435 18.9167 17.8163ZM35.1472 28.1939C35.1472 27.4924 34.8697 26.8756 34.3148 26.3434C33.7599 25.8112 33.1294 25.5572 32.4232 25.5814C31.7169 25.6056 31.0864 25.8596 30.5315 26.3434C29.9766 26.8272 29.7118 27.444 29.737 28.1939C29.737 28.8955 30.0018 29.5002 30.5315 30.0082C31.0612 30.5162 31.6917 30.7702 32.4232 30.7702C33.1546 30.7702 33.7978 30.5162 34.3526 30.0082C34.9075 29.5002 35.1724 28.8955 35.1472 28.1939ZM35.1472 7.43856C35.1472 6.73703 34.8697 6.13227 34.3148 5.62427C33.7599 5.11628 33.1294 4.86228 32.4232 4.86228C31.7169 4.86228 31.0864 5.11628 30.5315 5.62427C29.9766 6.13227 29.7118 6.73703 29.737 7.43856C29.737 8.16427 30.0018 8.78113 30.5315 9.28912C31.0612 9.79712 31.6917 10.0511 32.4232 10.0511C33.1546 10.0511 33.7978 9.79712 34.3526 9.28912C34.9075 8.78113 35.1724 8.16427 35.1472 7.43856ZM27.013 15.9657V19.7031C27.013 19.8482 26.9625 19.9813 26.8617 20.1022C26.7608 20.2232 26.6473 20.2958 26.5212 20.32L23.2675 20.828C23.1162 21.2876 22.8892 21.7956 22.5865 22.352C23.0657 23.0051 23.6963 23.7792 24.4782 24.6742C24.579 24.8194 24.6295 24.9524 24.6295 25.0734C24.6295 25.2427 24.579 25.3758 24.4782 25.4725C24.1503 25.8838 23.5702 26.4885 22.7378 27.2868C21.9055 28.0851 21.3506 28.4842 21.0732 28.4842C20.9218 28.4842 20.7831 28.4359 20.657 28.3391L18.2357 26.5248C17.706 26.7909 17.1637 26.9965 16.6088 27.1417C16.4575 28.5931 16.2935 29.6454 16.117 30.2985C16.0161 30.613 15.8017 30.7702 15.4738 30.7702H11.5392C11.3878 30.7702 11.2491 30.7218 11.123 30.6251C10.9969 30.5283 10.9338 30.4074 10.9338 30.2622L10.442 27.1779C9.96277 27.0328 9.43311 26.8151 8.853 26.5248L6.356 28.3391C6.25511 28.4359 6.11639 28.4842 5.93983 28.4842C5.7885 28.4842 5.63716 28.4359 5.48583 28.3391C3.46805 26.5248 2.45917 25.4362 2.45917 25.0734C2.45917 24.9524 2.50961 24.8315 2.6105 24.7105C2.73661 24.517 3.02667 24.1541 3.48067 23.622C3.93466 23.0898 4.26255 22.6785 4.46433 22.3882C4.13644 21.8077 3.88422 21.2513 3.70766 20.7191L0.491833 20.2474C0.365722 20.2232 0.252222 20.1627 0.151333 20.066C0.0504444 19.9692 0 19.8362 0 19.6668V15.9294C0 15.7843 0.0504444 15.6512 0.151333 15.5303C0.252222 15.4093 0.365722 15.3367 0.491833 15.3125L3.7455 14.8045C3.92205 14.3449 4.14905 13.8369 4.4265 13.2805C3.94728 12.6274 3.31672 11.8533 2.53483 10.9583C2.43394 10.8131 2.3835 10.6801 2.3835 10.5591C2.3835 10.3898 2.43394 10.2567 2.53483 10.16C2.8375 9.74874 3.41761 9.14398 4.27516 8.3457C5.13272 7.54741 5.68761 7.14827 5.93983 7.14827C6.09116 7.14827 6.2425 7.19665 6.39383 7.29341L8.81516 9.1077C9.29438 8.86579 9.83666 8.64808 10.442 8.45455C10.5933 7.00313 10.7573 5.96294 10.9338 5.33399C11.0095 5.01951 11.2113 4.86228 11.5392 4.86228H15.4738C15.6252 4.86228 15.7639 4.91066 15.89 5.00742C16.0161 5.10418 16.0918 5.22513 16.117 5.37028L16.6088 8.45455C17.088 8.5997 17.6051 8.80532 18.16 9.07141L20.657 7.29341C20.7831 7.19665 20.9218 7.14827 21.0732 7.14827C21.2497 7.14827 21.401 7.19665 21.5272 7.29341C23.5702 9.1077 24.5917 10.1963 24.5917 10.5591C24.5917 10.6801 24.5412 10.801 24.4403 10.922C24.2638 11.1397 23.9611 11.5025 23.5323 12.0105C23.1035 12.5185 22.7883 12.9298 22.5865 13.2443C22.9144 13.8974 23.154 14.4538 23.3053 14.9134L26.5212 15.3488C26.6473 15.3972 26.7608 15.4698 26.8617 15.5665C26.9625 15.6633 27.013 15.7964 27.013 15.9657ZM40.5195 26.7788V29.6091C40.5195 29.8268 39.4728 30.0324 37.3793 30.2259C37.228 30.5888 37.0262 30.9396 36.774 31.2782C37.4802 32.8022 37.8333 33.7336 37.8333 34.0722C37.8333 34.1206 37.8081 34.169 37.7577 34.2174C36.0425 35.185 35.1724 35.6688 35.1472 35.6688C35.021 35.6688 34.6931 35.3422 34.1635 34.6891C33.6338 34.0359 33.2681 33.5884 33.0663 33.3465C32.7889 33.3707 32.5745 33.3828 32.4232 33.3828C32.2718 33.3828 32.0574 33.3707 31.78 33.3465C31.6034 33.6126 31.2377 34.0601 30.6828 34.6891C30.1279 35.318 29.8127 35.6446 29.737 35.6688C29.7118 35.6688 28.8416 35.185 27.1265 34.2174C27.0508 34.169 27.013 34.1206 27.013 34.0722C27.013 33.7336 27.3787 32.8022 28.1102 31.2782C27.8579 30.9396 27.6435 30.5888 27.467 30.2259C25.3735 30.0324 24.3268 29.8268 24.3268 29.6091V26.7788C24.3268 26.5611 25.3735 26.3434 27.467 26.1257C27.6435 25.7386 27.8579 25.3879 28.1102 25.0734C27.3787 23.5494 27.013 22.6181 27.013 22.2794C27.013 22.231 27.0508 22.1826 27.1265 22.1342C27.1769 22.1101 27.4165 21.977 27.8453 21.7351C28.2741 21.4932 28.6903 21.2634 29.0938 21.0457C29.4974 20.828 29.7118 20.7191 29.737 20.7191C29.8379 20.7191 30.1532 21.0336 30.6828 21.6625C31.2125 22.2915 31.5782 22.7511 31.78 23.0414C32.0827 23.0172 32.297 23.0051 32.4232 23.0051C32.5493 23.0051 32.7637 23.0172 33.0663 23.0414C33.7725 22.0738 34.4157 21.3118 34.9958 20.7554L35.1472 20.7191C35.1976 20.7191 36.0678 21.1908 37.7577 22.1342C37.8081 22.1826 37.8333 22.231 37.8333 22.2794C37.8333 22.6181 37.4802 23.5494 36.774 25.0734C37.001 25.3879 37.2028 25.7386 37.3793 26.1257C39.4728 26.3434 40.5195 26.5611 40.5195 26.7788ZM40.5195 6.02342V8.8537C40.5195 9.07141 39.4728 9.28912 37.3793 9.50684C37.228 9.86969 37.0262 10.2205 36.774 10.5591C37.4802 12.0831 37.8333 13.0145 37.8333 13.3531C37.8333 13.4015 37.8081 13.4499 37.7577 13.4983C36.0425 14.4417 35.1724 14.9134 35.1472 14.9134C35.021 14.9134 34.6931 14.5989 34.1635 13.97C33.6338 13.341 33.2681 12.8814 33.0663 12.5911C32.7889 12.6153 32.5745 12.6274 32.4232 12.6274C32.2718 12.6274 32.0574 12.6153 31.78 12.5911C31.6034 12.8814 31.2377 13.341 30.6828 13.97C30.1279 14.5989 29.8127 14.9134 29.737 14.9134C29.7118 14.9134 28.8416 14.4417 27.1265 13.4983C27.0508 13.4499 27.013 13.4015 27.013 13.3531C27.013 13.0145 27.3787 12.0831 28.1102 10.5591C27.8579 10.2205 27.6435 9.86969 27.467 9.50684C25.3735 9.28912 24.3268 9.07141 24.3268 8.8537V6.02342C24.3268 5.8057 25.3735 5.60008 27.467 5.40656C27.6435 5.01951 27.8579 4.66875 28.1102 4.35428C27.3787 2.83028 27.013 1.89895 27.013 1.56028C27.013 1.5119 27.0508 1.46352 27.1265 1.41514C27.1769 1.39095 27.4165 1.2579 27.8453 1.016C28.2741 0.774094 28.6903 0.544285 29.0938 0.326571C29.4974 0.108857 29.7118 0 29.737 0C29.8379 0 30.1532 0.314476 30.6828 0.943427C31.2125 1.57238 31.5782 2.032 31.78 2.32228C32.0827 2.2739 32.297 2.24971 32.4232 2.24971C32.5493 2.24971 32.7637 2.2739 33.0663 2.32228C33.7725 1.35466 34.4157 0.592665 34.9958 0.0362856L35.1472 0C35.1976 0 36.0678 0.471713 37.7577 1.41514C37.8081 1.46352 37.8333 1.5119 37.8333 1.56028C37.8333 1.89895 37.4802 2.83028 36.774 4.35428C37.001 4.66875 37.2028 5.01951 37.3793 5.40656C39.4728 5.60008 40.5195 5.8057 40.5195 6.02342Z" fill="#454A4B"/>
</svg>
