<svg width="38" height="33" viewBox="0 0 38 33" fill="none" xmlns="http://www.w3.org/2000/svg">
<path d="M0.00146143 30.2268V5.87377C0.00146143 5.1038 0.305438 4.44383 0.913391 3.89385C1.52134 3.34387 2.28129 3.07988 3.19322 3.10188H8.32282V1.02296C8.32282 0.736972 8.43681 0.494981 8.66479 0.296989C8.89278 0.0989961 9.17142 0 9.50073 0C9.83004 0 10.1087 0.0989961 10.3367 0.296989C10.5646 0.494981 10.6786 0.736972 10.6786 1.02296V3.10188H17.8221V1.02296C17.8221 0.736972 17.9361 0.494981 18.1641 0.296989C18.392 0.0989961 18.6707 0 19 0C19.3293 0 19.6079 0.0989961 19.8359 0.296989C20.0639 0.494981 20.1779 0.736972 20.1779 1.02296V3.10188H27.3214V1.02296C27.3214 0.736972 27.4353 0.494981 27.6633 0.296989C27.8913 0.0989961 28.17 0 28.4993 0C28.8286 0 29.1072 0.0989961 29.3352 0.296989C29.5632 0.494981 29.6772 0.736972 29.6772 1.02296V3.10188H34.8068C35.6934 3.10188 36.4533 3.36587 37.0866 3.89385C37.7199 4.42183 38.0239 5.0818 37.9985 5.87377V30.2268C37.9985 30.9968 37.6946 31.6568 37.0866 32.2068C36.4786 32.7567 35.7187 33.0207 34.8068 32.9987H3.19322C2.30662 32.9987 1.54668 32.7347 0.913391 32.2068C0.280107 31.6788 -0.02387 31.0188 0.00146143 30.2268ZM2.39528 30.2268C2.39528 30.4468 2.45861 30.6228 2.58526 30.7548C2.71192 30.8868 2.91457 30.9528 3.19322 30.9528H34.8068C35.0601 30.9528 35.2627 30.8868 35.4147 30.7548C35.5667 30.6228 35.63 30.4468 35.6047 30.2268V5.87377C35.6047 5.65378 35.5414 5.47779 35.4147 5.34579C35.2881 5.2138 35.0854 5.1478 34.8068 5.1478H29.6772V7.22672C29.6772 7.51271 29.5632 7.7547 29.3352 7.95269C29.1072 8.15069 28.8286 8.24968 28.4993 8.24968C28.17 8.24968 27.8913 8.15069 27.6633 7.95269C27.4353 7.7547 27.3214 7.51271 27.3214 7.22672V5.1478H20.1779V7.22672C20.1779 7.51271 20.0639 7.7547 19.8359 7.95269C19.6079 8.15069 19.3293 8.24968 19 8.24968C18.6707 8.24968 18.392 8.15069 18.1641 7.95269C17.9361 7.7547 17.8221 7.51271 17.8221 7.22672V5.1478H10.6786V7.22672C10.6786 7.51271 10.5646 7.7547 10.3367 7.95269C10.1087 8.15069 9.83004 8.24968 9.50073 8.24968C9.17142 8.24968 8.89278 8.15069 8.66479 7.95269C8.43681 7.7547 8.32282 7.51271 8.32282 7.22672V5.1478H3.19322C2.9399 5.1478 2.73725 5.2138 2.58526 5.34579C2.43327 5.47779 2.36995 5.65378 2.39528 5.87377V30.2268ZM8.32282 25.772V22.6701H13.0725V25.772H8.32282ZM8.32282 20.6242V17.5223H13.0725V20.6242H8.32282ZM8.32282 15.4764V12.3745H13.0725V15.4764H8.32282ZM16.6442 25.772V22.6701H21.3938V25.772H16.6442ZM16.6442 20.6242V17.5223H21.3938V20.6242H16.6442ZM16.6442 15.4764V12.3745H21.3938V15.4764H16.6442ZM24.9275 25.772V22.6701H29.6772V25.772H24.9275ZM24.9275 20.6242V17.5223H29.6772V20.6242H24.9275ZM24.9275 15.4764V12.3745H29.6772V15.4764H24.9275Z" fill="black"/>
</svg>
